# xmcd CD database file
#
# Track frame offsets:
#	150
#	15650
#	28312
#	37475
#	56200
#	73612
#	84250
#	111412
#	130150
#	143625
#	160275
#	176012
#	192200
#	212250
#	224750
#	238425
#
# Disc length: 3471 seconds
#
# Revision: 2
# Processed by: cddbd v1.5.1PL0 Copyright (c) Steve Scherf et al.
# Submitted via: CDex 1.51
#
DISCID=f80d8d10
DTITLE=Various Artist - The Very Best Of Country Rock Vol. 1
DYEAR=1993
DGENRE=Country
TTITLE0=Charlie Daniels Band - Boogie Woogie Fiddle Country Blues
TTITLE1=Loggins and Messina - Your Mama Don't Dance 
TTITLE2=The Byrds - All I Really Want To Do
TTITLE3=Exile - I Can't Get Close Enough
TTITLE4=Poco - A Good Feeling To Know
TTITLE5=Steve Earle - Continental Trailways Blues
TTITLE6=Michael Murphey - Cosmic Cowboy - Cosmic Breakdown
TTITLE7=Rodney Crowell - Oh King Richard
TTITLE8=The Shooters - Til The Old Wears Off
TTITLE9=Dan Fogelberg - The Language Of Love
TTITLE10=Darden Smith - 2000 Years
TTITLE11=Charlie Daniels Band - The Devil Went Down To Georgia
TTITLE12=J. D. Souther - Trouble In Paradise
TTITLE13=New Riders Of The Purple Sage - Panama Red
TTITLE14=Roger Mcguinn and Band - Circle Song
TTITLE15=Atlanta Rhythm Section - Alien
EXTD=YEAR: 1993
EXTT0=
EXTT1=
EXTT2=
EXTT3=
EXTT4=
EXTT5=
EXTT6=
EXTT7=
EXTT8=
EXTT9=
EXTT10=
EXTT11=
EXTT12=
EXTT13=
EXTT14=
EXTT15=
PLAYORDER=
